%TF.GenerationSoftware,KiCad,Pcbnew,8.0.8*%
%TF.CreationDate,2025-02-11T12:51:12+05:30*%
%TF.ProjectId,PCB_remote,5043425f-7265-46d6-9f74-652e6b696361,prageethM*%
%TF.SameCoordinates,Original*%
%TF.FileFunction,Drillmap*%
%TF.FilePolarity,Positive*%
%FSLAX45Y45*%
G04 Gerber Fmt 4.5, Leading zero omitted, Abs format (unit mm)*
G04 Created by KiCad (PCBNEW 8.0.8) date 2025-02-11 12:51:12*
%MOMM*%
%LPD*%
G01*
G04 APERTURE LIST*
%ADD10C,0.100000*%
%ADD11C,0.200000*%
%ADD12C,0.110000*%
%ADD13C,0.130000*%
G04 APERTURE END LIST*
D10*
X11684000Y-8382000D02*
X17018000Y-8382000D01*
X17018000Y-12700000D01*
X11684000Y-12700000D01*
X11684000Y-8382000D01*
D11*
D10*
X13676000Y-10120000D02*
X13756000Y-10200000D01*
X13756000Y-10120000D02*
X13676000Y-10200000D01*
X13676000Y-11644000D02*
X13756000Y-11724000D01*
X13756000Y-11644000D02*
X13676000Y-11724000D01*
X13926000Y-10120000D02*
X14006000Y-10200000D01*
X14006000Y-10120000D02*
X13926000Y-10200000D01*
X13926000Y-11644000D02*
X14006000Y-11724000D01*
X14006000Y-11644000D02*
X13926000Y-11724000D01*
D12*
X13009000Y-10668000D02*
G75*
G02*
X12899000Y-10668000I-55000J0D01*
G01*
X12899000Y-10668000D02*
G75*
G02*
X13009000Y-10668000I55000J0D01*
G01*
X13263000Y-10668000D02*
G75*
G02*
X13153000Y-10668000I-55000J0D01*
G01*
X13153000Y-10668000D02*
G75*
G02*
X13263000Y-10668000I55000J0D01*
G01*
X15041000Y-10668000D02*
G75*
G02*
X14931000Y-10668000I-55000J0D01*
G01*
X14931000Y-10668000D02*
G75*
G02*
X15041000Y-10668000I55000J0D01*
G01*
X15041000Y-10922000D02*
G75*
G02*
X14931000Y-10922000I-55000J0D01*
G01*
X14931000Y-10922000D02*
G75*
G02*
X15041000Y-10922000I55000J0D01*
G01*
X15041000Y-11176000D02*
G75*
G02*
X14931000Y-11176000I-55000J0D01*
G01*
X14931000Y-11176000D02*
G75*
G02*
X15041000Y-11176000I55000J0D01*
G01*
D13*
X12700000Y-9333000D02*
X12700000Y-9463000D01*
X12635000Y-9398000D02*
X12765000Y-9398000D01*
X13200000Y-9333000D02*
X13200000Y-9463000D01*
X13135000Y-9398000D02*
X13265000Y-9398000D01*
X16002000Y-10357000D02*
X16002000Y-10487000D01*
X15937000Y-10422000D02*
X16067000Y-10422000D01*
X16002000Y-10857000D02*
X16002000Y-10987000D01*
X15937000Y-10922000D02*
X16067000Y-10922000D01*
D11*
X11939777Y-13016484D02*
X11939777Y-12816484D01*
X11939777Y-12816484D02*
X11987396Y-12816484D01*
X11987396Y-12816484D02*
X12015967Y-12826008D01*
X12015967Y-12826008D02*
X12035015Y-12845055D01*
X12035015Y-12845055D02*
X12044539Y-12864103D01*
X12044539Y-12864103D02*
X12054062Y-12902198D01*
X12054062Y-12902198D02*
X12054062Y-12930769D01*
X12054062Y-12930769D02*
X12044539Y-12968865D01*
X12044539Y-12968865D02*
X12035015Y-12987912D01*
X12035015Y-12987912D02*
X12015967Y-13006960D01*
X12015967Y-13006960D02*
X11987396Y-13016484D01*
X11987396Y-13016484D02*
X11939777Y-13016484D01*
X12139777Y-13016484D02*
X12139777Y-12883150D01*
X12139777Y-12921246D02*
X12149301Y-12902198D01*
X12149301Y-12902198D02*
X12158824Y-12892674D01*
X12158824Y-12892674D02*
X12177872Y-12883150D01*
X12177872Y-12883150D02*
X12196920Y-12883150D01*
X12263586Y-13016484D02*
X12263586Y-12883150D01*
X12263586Y-12816484D02*
X12254062Y-12826008D01*
X12254062Y-12826008D02*
X12263586Y-12835531D01*
X12263586Y-12835531D02*
X12273110Y-12826008D01*
X12273110Y-12826008D02*
X12263586Y-12816484D01*
X12263586Y-12816484D02*
X12263586Y-12835531D01*
X12387396Y-13016484D02*
X12368348Y-13006960D01*
X12368348Y-13006960D02*
X12358824Y-12987912D01*
X12358824Y-12987912D02*
X12358824Y-12816484D01*
X12492158Y-13016484D02*
X12473110Y-13006960D01*
X12473110Y-13006960D02*
X12463586Y-12987912D01*
X12463586Y-12987912D02*
X12463586Y-12816484D01*
X12720729Y-13016484D02*
X12720729Y-12816484D01*
X12720729Y-12816484D02*
X12787396Y-12959341D01*
X12787396Y-12959341D02*
X12854062Y-12816484D01*
X12854062Y-12816484D02*
X12854062Y-13016484D01*
X13035015Y-13016484D02*
X13035015Y-12911722D01*
X13035015Y-12911722D02*
X13025491Y-12892674D01*
X13025491Y-12892674D02*
X13006443Y-12883150D01*
X13006443Y-12883150D02*
X12968348Y-12883150D01*
X12968348Y-12883150D02*
X12949301Y-12892674D01*
X13035015Y-13006960D02*
X13015967Y-13016484D01*
X13015967Y-13016484D02*
X12968348Y-13016484D01*
X12968348Y-13016484D02*
X12949301Y-13006960D01*
X12949301Y-13006960D02*
X12939777Y-12987912D01*
X12939777Y-12987912D02*
X12939777Y-12968865D01*
X12939777Y-12968865D02*
X12949301Y-12949817D01*
X12949301Y-12949817D02*
X12968348Y-12940293D01*
X12968348Y-12940293D02*
X13015967Y-12940293D01*
X13015967Y-12940293D02*
X13035015Y-12930769D01*
X13130253Y-12883150D02*
X13130253Y-13083150D01*
X13130253Y-12892674D02*
X13149301Y-12883150D01*
X13149301Y-12883150D02*
X13187396Y-12883150D01*
X13187396Y-12883150D02*
X13206443Y-12892674D01*
X13206443Y-12892674D02*
X13215967Y-12902198D01*
X13215967Y-12902198D02*
X13225491Y-12921246D01*
X13225491Y-12921246D02*
X13225491Y-12978388D01*
X13225491Y-12978388D02*
X13215967Y-12997436D01*
X13215967Y-12997436D02*
X13206443Y-13006960D01*
X13206443Y-13006960D02*
X13187396Y-13016484D01*
X13187396Y-13016484D02*
X13149301Y-13016484D01*
X13149301Y-13016484D02*
X13130253Y-13006960D01*
X13311205Y-12997436D02*
X13320729Y-13006960D01*
X13320729Y-13006960D02*
X13311205Y-13016484D01*
X13311205Y-13016484D02*
X13301682Y-13006960D01*
X13301682Y-13006960D02*
X13311205Y-12997436D01*
X13311205Y-12997436D02*
X13311205Y-13016484D01*
X13311205Y-12892674D02*
X13320729Y-12902198D01*
X13320729Y-12902198D02*
X13311205Y-12911722D01*
X13311205Y-12911722D02*
X13301682Y-12902198D01*
X13301682Y-12902198D02*
X13311205Y-12892674D01*
X13311205Y-12892674D02*
X13311205Y-12911722D01*
D10*
X11599000Y-13305000D02*
X11679000Y-13385000D01*
X11679000Y-13305000D02*
X11599000Y-13385000D01*
D11*
X11977872Y-13236484D02*
X11996920Y-13236484D01*
X11996920Y-13236484D02*
X12015967Y-13246008D01*
X12015967Y-13246008D02*
X12025491Y-13255531D01*
X12025491Y-13255531D02*
X12035015Y-13274579D01*
X12035015Y-13274579D02*
X12044539Y-13312674D01*
X12044539Y-13312674D02*
X12044539Y-13360293D01*
X12044539Y-13360293D02*
X12035015Y-13398388D01*
X12035015Y-13398388D02*
X12025491Y-13417436D01*
X12025491Y-13417436D02*
X12015967Y-13426960D01*
X12015967Y-13426960D02*
X11996920Y-13436484D01*
X11996920Y-13436484D02*
X11977872Y-13436484D01*
X11977872Y-13436484D02*
X11958824Y-13426960D01*
X11958824Y-13426960D02*
X11949301Y-13417436D01*
X11949301Y-13417436D02*
X11939777Y-13398388D01*
X11939777Y-13398388D02*
X11930253Y-13360293D01*
X11930253Y-13360293D02*
X11930253Y-13312674D01*
X11930253Y-13312674D02*
X11939777Y-13274579D01*
X11939777Y-13274579D02*
X11949301Y-13255531D01*
X11949301Y-13255531D02*
X11958824Y-13246008D01*
X11958824Y-13246008D02*
X11977872Y-13236484D01*
X12130253Y-13417436D02*
X12139777Y-13426960D01*
X12139777Y-13426960D02*
X12130253Y-13436484D01*
X12130253Y-13436484D02*
X12120729Y-13426960D01*
X12120729Y-13426960D02*
X12130253Y-13417436D01*
X12130253Y-13417436D02*
X12130253Y-13436484D01*
X12254062Y-13322198D02*
X12235015Y-13312674D01*
X12235015Y-13312674D02*
X12225491Y-13303150D01*
X12225491Y-13303150D02*
X12215967Y-13284103D01*
X12215967Y-13284103D02*
X12215967Y-13274579D01*
X12215967Y-13274579D02*
X12225491Y-13255531D01*
X12225491Y-13255531D02*
X12235015Y-13246008D01*
X12235015Y-13246008D02*
X12254062Y-13236484D01*
X12254062Y-13236484D02*
X12292158Y-13236484D01*
X12292158Y-13236484D02*
X12311205Y-13246008D01*
X12311205Y-13246008D02*
X12320729Y-13255531D01*
X12320729Y-13255531D02*
X12330253Y-13274579D01*
X12330253Y-13274579D02*
X12330253Y-13284103D01*
X12330253Y-13284103D02*
X12320729Y-13303150D01*
X12320729Y-13303150D02*
X12311205Y-13312674D01*
X12311205Y-13312674D02*
X12292158Y-13322198D01*
X12292158Y-13322198D02*
X12254062Y-13322198D01*
X12254062Y-13322198D02*
X12235015Y-13331722D01*
X12235015Y-13331722D02*
X12225491Y-13341246D01*
X12225491Y-13341246D02*
X12215967Y-13360293D01*
X12215967Y-13360293D02*
X12215967Y-13398388D01*
X12215967Y-13398388D02*
X12225491Y-13417436D01*
X12225491Y-13417436D02*
X12235015Y-13426960D01*
X12235015Y-13426960D02*
X12254062Y-13436484D01*
X12254062Y-13436484D02*
X12292158Y-13436484D01*
X12292158Y-13436484D02*
X12311205Y-13426960D01*
X12311205Y-13426960D02*
X12320729Y-13417436D01*
X12320729Y-13417436D02*
X12330253Y-13398388D01*
X12330253Y-13398388D02*
X12330253Y-13360293D01*
X12330253Y-13360293D02*
X12320729Y-13341246D01*
X12320729Y-13341246D02*
X12311205Y-13331722D01*
X12311205Y-13331722D02*
X12292158Y-13322198D01*
X12454062Y-13236484D02*
X12473110Y-13236484D01*
X12473110Y-13236484D02*
X12492158Y-13246008D01*
X12492158Y-13246008D02*
X12501682Y-13255531D01*
X12501682Y-13255531D02*
X12511205Y-13274579D01*
X12511205Y-13274579D02*
X12520729Y-13312674D01*
X12520729Y-13312674D02*
X12520729Y-13360293D01*
X12520729Y-13360293D02*
X12511205Y-13398388D01*
X12511205Y-13398388D02*
X12501682Y-13417436D01*
X12501682Y-13417436D02*
X12492158Y-13426960D01*
X12492158Y-13426960D02*
X12473110Y-13436484D01*
X12473110Y-13436484D02*
X12454062Y-13436484D01*
X12454062Y-13436484D02*
X12435015Y-13426960D01*
X12435015Y-13426960D02*
X12425491Y-13417436D01*
X12425491Y-13417436D02*
X12415967Y-13398388D01*
X12415967Y-13398388D02*
X12406443Y-13360293D01*
X12406443Y-13360293D02*
X12406443Y-13312674D01*
X12406443Y-13312674D02*
X12415967Y-13274579D01*
X12415967Y-13274579D02*
X12425491Y-13255531D01*
X12425491Y-13255531D02*
X12435015Y-13246008D01*
X12435015Y-13246008D02*
X12454062Y-13236484D01*
X12644539Y-13236484D02*
X12663586Y-13236484D01*
X12663586Y-13236484D02*
X12682634Y-13246008D01*
X12682634Y-13246008D02*
X12692158Y-13255531D01*
X12692158Y-13255531D02*
X12701682Y-13274579D01*
X12701682Y-13274579D02*
X12711205Y-13312674D01*
X12711205Y-13312674D02*
X12711205Y-13360293D01*
X12711205Y-13360293D02*
X12701682Y-13398388D01*
X12701682Y-13398388D02*
X12692158Y-13417436D01*
X12692158Y-13417436D02*
X12682634Y-13426960D01*
X12682634Y-13426960D02*
X12663586Y-13436484D01*
X12663586Y-13436484D02*
X12644539Y-13436484D01*
X12644539Y-13436484D02*
X12625491Y-13426960D01*
X12625491Y-13426960D02*
X12615967Y-13417436D01*
X12615967Y-13417436D02*
X12606443Y-13398388D01*
X12606443Y-13398388D02*
X12596920Y-13360293D01*
X12596920Y-13360293D02*
X12596920Y-13312674D01*
X12596920Y-13312674D02*
X12606443Y-13274579D01*
X12606443Y-13274579D02*
X12615967Y-13255531D01*
X12615967Y-13255531D02*
X12625491Y-13246008D01*
X12625491Y-13246008D02*
X12644539Y-13236484D01*
X12796920Y-13436484D02*
X12796920Y-13303150D01*
X12796920Y-13322198D02*
X12806443Y-13312674D01*
X12806443Y-13312674D02*
X12825491Y-13303150D01*
X12825491Y-13303150D02*
X12854063Y-13303150D01*
X12854063Y-13303150D02*
X12873110Y-13312674D01*
X12873110Y-13312674D02*
X12882634Y-13331722D01*
X12882634Y-13331722D02*
X12882634Y-13436484D01*
X12882634Y-13331722D02*
X12892158Y-13312674D01*
X12892158Y-13312674D02*
X12911205Y-13303150D01*
X12911205Y-13303150D02*
X12939777Y-13303150D01*
X12939777Y-13303150D02*
X12958824Y-13312674D01*
X12958824Y-13312674D02*
X12968348Y-13331722D01*
X12968348Y-13331722D02*
X12968348Y-13436484D01*
X13063586Y-13436484D02*
X13063586Y-13303150D01*
X13063586Y-13322198D02*
X13073110Y-13312674D01*
X13073110Y-13312674D02*
X13092158Y-13303150D01*
X13092158Y-13303150D02*
X13120729Y-13303150D01*
X13120729Y-13303150D02*
X13139777Y-13312674D01*
X13139777Y-13312674D02*
X13149301Y-13331722D01*
X13149301Y-13331722D02*
X13149301Y-13436484D01*
X13149301Y-13331722D02*
X13158824Y-13312674D01*
X13158824Y-13312674D02*
X13177872Y-13303150D01*
X13177872Y-13303150D02*
X13206443Y-13303150D01*
X13206443Y-13303150D02*
X13225491Y-13312674D01*
X13225491Y-13312674D02*
X13235015Y-13331722D01*
X13235015Y-13331722D02*
X13235015Y-13436484D01*
X13625491Y-13226960D02*
X13454063Y-13484103D01*
X13882634Y-13236484D02*
X13901682Y-13236484D01*
X13901682Y-13236484D02*
X13920729Y-13246008D01*
X13920729Y-13246008D02*
X13930253Y-13255531D01*
X13930253Y-13255531D02*
X13939777Y-13274579D01*
X13939777Y-13274579D02*
X13949301Y-13312674D01*
X13949301Y-13312674D02*
X13949301Y-13360293D01*
X13949301Y-13360293D02*
X13939777Y-13398388D01*
X13939777Y-13398388D02*
X13930253Y-13417436D01*
X13930253Y-13417436D02*
X13920729Y-13426960D01*
X13920729Y-13426960D02*
X13901682Y-13436484D01*
X13901682Y-13436484D02*
X13882634Y-13436484D01*
X13882634Y-13436484D02*
X13863586Y-13426960D01*
X13863586Y-13426960D02*
X13854063Y-13417436D01*
X13854063Y-13417436D02*
X13844539Y-13398388D01*
X13844539Y-13398388D02*
X13835015Y-13360293D01*
X13835015Y-13360293D02*
X13835015Y-13312674D01*
X13835015Y-13312674D02*
X13844539Y-13274579D01*
X13844539Y-13274579D02*
X13854063Y-13255531D01*
X13854063Y-13255531D02*
X13863586Y-13246008D01*
X13863586Y-13246008D02*
X13882634Y-13236484D01*
X14035015Y-13417436D02*
X14044539Y-13426960D01*
X14044539Y-13426960D02*
X14035015Y-13436484D01*
X14035015Y-13436484D02*
X14025491Y-13426960D01*
X14025491Y-13426960D02*
X14035015Y-13417436D01*
X14035015Y-13417436D02*
X14035015Y-13436484D01*
X14168348Y-13236484D02*
X14187396Y-13236484D01*
X14187396Y-13236484D02*
X14206444Y-13246008D01*
X14206444Y-13246008D02*
X14215967Y-13255531D01*
X14215967Y-13255531D02*
X14225491Y-13274579D01*
X14225491Y-13274579D02*
X14235015Y-13312674D01*
X14235015Y-13312674D02*
X14235015Y-13360293D01*
X14235015Y-13360293D02*
X14225491Y-13398388D01*
X14225491Y-13398388D02*
X14215967Y-13417436D01*
X14215967Y-13417436D02*
X14206444Y-13426960D01*
X14206444Y-13426960D02*
X14187396Y-13436484D01*
X14187396Y-13436484D02*
X14168348Y-13436484D01*
X14168348Y-13436484D02*
X14149301Y-13426960D01*
X14149301Y-13426960D02*
X14139777Y-13417436D01*
X14139777Y-13417436D02*
X14130253Y-13398388D01*
X14130253Y-13398388D02*
X14120729Y-13360293D01*
X14120729Y-13360293D02*
X14120729Y-13312674D01*
X14120729Y-13312674D02*
X14130253Y-13274579D01*
X14130253Y-13274579D02*
X14139777Y-13255531D01*
X14139777Y-13255531D02*
X14149301Y-13246008D01*
X14149301Y-13246008D02*
X14168348Y-13236484D01*
X14301682Y-13236484D02*
X14425491Y-13236484D01*
X14425491Y-13236484D02*
X14358825Y-13312674D01*
X14358825Y-13312674D02*
X14387396Y-13312674D01*
X14387396Y-13312674D02*
X14406444Y-13322198D01*
X14406444Y-13322198D02*
X14415967Y-13331722D01*
X14415967Y-13331722D02*
X14425491Y-13350769D01*
X14425491Y-13350769D02*
X14425491Y-13398388D01*
X14425491Y-13398388D02*
X14415967Y-13417436D01*
X14415967Y-13417436D02*
X14406444Y-13426960D01*
X14406444Y-13426960D02*
X14387396Y-13436484D01*
X14387396Y-13436484D02*
X14330253Y-13436484D01*
X14330253Y-13436484D02*
X14311206Y-13426960D01*
X14311206Y-13426960D02*
X14301682Y-13417436D01*
X14615967Y-13436484D02*
X14501682Y-13436484D01*
X14558825Y-13436484D02*
X14558825Y-13236484D01*
X14558825Y-13236484D02*
X14539777Y-13265055D01*
X14539777Y-13265055D02*
X14520729Y-13284103D01*
X14520729Y-13284103D02*
X14501682Y-13293627D01*
X14796920Y-13236484D02*
X14701682Y-13236484D01*
X14701682Y-13236484D02*
X14692158Y-13331722D01*
X14692158Y-13331722D02*
X14701682Y-13322198D01*
X14701682Y-13322198D02*
X14720729Y-13312674D01*
X14720729Y-13312674D02*
X14768348Y-13312674D01*
X14768348Y-13312674D02*
X14787396Y-13322198D01*
X14787396Y-13322198D02*
X14796920Y-13331722D01*
X14796920Y-13331722D02*
X14806444Y-13350769D01*
X14806444Y-13350769D02*
X14806444Y-13398388D01*
X14806444Y-13398388D02*
X14796920Y-13417436D01*
X14796920Y-13417436D02*
X14787396Y-13426960D01*
X14787396Y-13426960D02*
X14768348Y-13436484D01*
X14768348Y-13436484D02*
X14720729Y-13436484D01*
X14720729Y-13436484D02*
X14701682Y-13426960D01*
X14701682Y-13426960D02*
X14692158Y-13417436D01*
X14882634Y-13236484D02*
X14882634Y-13274579D01*
X14958825Y-13236484D02*
X14958825Y-13274579D01*
X15254063Y-13512674D02*
X15244539Y-13503150D01*
X15244539Y-13503150D02*
X15225491Y-13474579D01*
X15225491Y-13474579D02*
X15215968Y-13455531D01*
X15215968Y-13455531D02*
X15206444Y-13426960D01*
X15206444Y-13426960D02*
X15196920Y-13379341D01*
X15196920Y-13379341D02*
X15196920Y-13341246D01*
X15196920Y-13341246D02*
X15206444Y-13293627D01*
X15206444Y-13293627D02*
X15215968Y-13265055D01*
X15215968Y-13265055D02*
X15225491Y-13246008D01*
X15225491Y-13246008D02*
X15244539Y-13217436D01*
X15244539Y-13217436D02*
X15254063Y-13207912D01*
X15415968Y-13303150D02*
X15415968Y-13436484D01*
X15368348Y-13226960D02*
X15320729Y-13369817D01*
X15320729Y-13369817D02*
X15444539Y-13369817D01*
X15673110Y-13436484D02*
X15673110Y-13236484D01*
X15758825Y-13436484D02*
X15758825Y-13331722D01*
X15758825Y-13331722D02*
X15749301Y-13312674D01*
X15749301Y-13312674D02*
X15730253Y-13303150D01*
X15730253Y-13303150D02*
X15701682Y-13303150D01*
X15701682Y-13303150D02*
X15682634Y-13312674D01*
X15682634Y-13312674D02*
X15673110Y-13322198D01*
X15882634Y-13436484D02*
X15863587Y-13426960D01*
X15863587Y-13426960D02*
X15854063Y-13417436D01*
X15854063Y-13417436D02*
X15844539Y-13398388D01*
X15844539Y-13398388D02*
X15844539Y-13341246D01*
X15844539Y-13341246D02*
X15854063Y-13322198D01*
X15854063Y-13322198D02*
X15863587Y-13312674D01*
X15863587Y-13312674D02*
X15882634Y-13303150D01*
X15882634Y-13303150D02*
X15911206Y-13303150D01*
X15911206Y-13303150D02*
X15930253Y-13312674D01*
X15930253Y-13312674D02*
X15939777Y-13322198D01*
X15939777Y-13322198D02*
X15949301Y-13341246D01*
X15949301Y-13341246D02*
X15949301Y-13398388D01*
X15949301Y-13398388D02*
X15939777Y-13417436D01*
X15939777Y-13417436D02*
X15930253Y-13426960D01*
X15930253Y-13426960D02*
X15911206Y-13436484D01*
X15911206Y-13436484D02*
X15882634Y-13436484D01*
X16063587Y-13436484D02*
X16044539Y-13426960D01*
X16044539Y-13426960D02*
X16035015Y-13407912D01*
X16035015Y-13407912D02*
X16035015Y-13236484D01*
X16215968Y-13426960D02*
X16196920Y-13436484D01*
X16196920Y-13436484D02*
X16158825Y-13436484D01*
X16158825Y-13436484D02*
X16139777Y-13426960D01*
X16139777Y-13426960D02*
X16130253Y-13407912D01*
X16130253Y-13407912D02*
X16130253Y-13331722D01*
X16130253Y-13331722D02*
X16139777Y-13312674D01*
X16139777Y-13312674D02*
X16158825Y-13303150D01*
X16158825Y-13303150D02*
X16196920Y-13303150D01*
X16196920Y-13303150D02*
X16215968Y-13312674D01*
X16215968Y-13312674D02*
X16225491Y-13331722D01*
X16225491Y-13331722D02*
X16225491Y-13350769D01*
X16225491Y-13350769D02*
X16130253Y-13369817D01*
X16301682Y-13426960D02*
X16320730Y-13436484D01*
X16320730Y-13436484D02*
X16358825Y-13436484D01*
X16358825Y-13436484D02*
X16377872Y-13426960D01*
X16377872Y-13426960D02*
X16387396Y-13407912D01*
X16387396Y-13407912D02*
X16387396Y-13398388D01*
X16387396Y-13398388D02*
X16377872Y-13379341D01*
X16377872Y-13379341D02*
X16358825Y-13369817D01*
X16358825Y-13369817D02*
X16330253Y-13369817D01*
X16330253Y-13369817D02*
X16311206Y-13360293D01*
X16311206Y-13360293D02*
X16301682Y-13341246D01*
X16301682Y-13341246D02*
X16301682Y-13331722D01*
X16301682Y-13331722D02*
X16311206Y-13312674D01*
X16311206Y-13312674D02*
X16330253Y-13303150D01*
X16330253Y-13303150D02*
X16358825Y-13303150D01*
X16358825Y-13303150D02*
X16377872Y-13312674D01*
X16454063Y-13512674D02*
X16463587Y-13503150D01*
X16463587Y-13503150D02*
X16482634Y-13474579D01*
X16482634Y-13474579D02*
X16492158Y-13455531D01*
X16492158Y-13455531D02*
X16501682Y-13426960D01*
X16501682Y-13426960D02*
X16511206Y-13379341D01*
X16511206Y-13379341D02*
X16511206Y-13341246D01*
X16511206Y-13341246D02*
X16501682Y-13293627D01*
X16501682Y-13293627D02*
X16492158Y-13265055D01*
X16492158Y-13265055D02*
X16482634Y-13246008D01*
X16482634Y-13246008D02*
X16463587Y-13217436D01*
X16463587Y-13217436D02*
X16454063Y-13207912D01*
D12*
X11679000Y-13609000D02*
G75*
G02*
X11569000Y-13609000I-55000J0D01*
G01*
X11569000Y-13609000D02*
G75*
G02*
X11679000Y-13609000I55000J0D01*
G01*
D11*
X12044539Y-13700484D02*
X11930253Y-13700484D01*
X11987396Y-13700484D02*
X11987396Y-13500484D01*
X11987396Y-13500484D02*
X11968348Y-13529055D01*
X11968348Y-13529055D02*
X11949301Y-13548103D01*
X11949301Y-13548103D02*
X11930253Y-13557627D01*
X12130253Y-13681436D02*
X12139777Y-13690960D01*
X12139777Y-13690960D02*
X12130253Y-13700484D01*
X12130253Y-13700484D02*
X12120729Y-13690960D01*
X12120729Y-13690960D02*
X12130253Y-13681436D01*
X12130253Y-13681436D02*
X12130253Y-13700484D01*
X12330253Y-13700484D02*
X12215967Y-13700484D01*
X12273110Y-13700484D02*
X12273110Y-13500484D01*
X12273110Y-13500484D02*
X12254062Y-13529055D01*
X12254062Y-13529055D02*
X12235015Y-13548103D01*
X12235015Y-13548103D02*
X12215967Y-13557627D01*
X12454062Y-13500484D02*
X12473110Y-13500484D01*
X12473110Y-13500484D02*
X12492158Y-13510008D01*
X12492158Y-13510008D02*
X12501682Y-13519531D01*
X12501682Y-13519531D02*
X12511205Y-13538579D01*
X12511205Y-13538579D02*
X12520729Y-13576674D01*
X12520729Y-13576674D02*
X12520729Y-13624293D01*
X12520729Y-13624293D02*
X12511205Y-13662388D01*
X12511205Y-13662388D02*
X12501682Y-13681436D01*
X12501682Y-13681436D02*
X12492158Y-13690960D01*
X12492158Y-13690960D02*
X12473110Y-13700484D01*
X12473110Y-13700484D02*
X12454062Y-13700484D01*
X12454062Y-13700484D02*
X12435015Y-13690960D01*
X12435015Y-13690960D02*
X12425491Y-13681436D01*
X12425491Y-13681436D02*
X12415967Y-13662388D01*
X12415967Y-13662388D02*
X12406443Y-13624293D01*
X12406443Y-13624293D02*
X12406443Y-13576674D01*
X12406443Y-13576674D02*
X12415967Y-13538579D01*
X12415967Y-13538579D02*
X12425491Y-13519531D01*
X12425491Y-13519531D02*
X12435015Y-13510008D01*
X12435015Y-13510008D02*
X12454062Y-13500484D01*
X12644539Y-13500484D02*
X12663586Y-13500484D01*
X12663586Y-13500484D02*
X12682634Y-13510008D01*
X12682634Y-13510008D02*
X12692158Y-13519531D01*
X12692158Y-13519531D02*
X12701682Y-13538579D01*
X12701682Y-13538579D02*
X12711205Y-13576674D01*
X12711205Y-13576674D02*
X12711205Y-13624293D01*
X12711205Y-13624293D02*
X12701682Y-13662388D01*
X12701682Y-13662388D02*
X12692158Y-13681436D01*
X12692158Y-13681436D02*
X12682634Y-13690960D01*
X12682634Y-13690960D02*
X12663586Y-13700484D01*
X12663586Y-13700484D02*
X12644539Y-13700484D01*
X12644539Y-13700484D02*
X12625491Y-13690960D01*
X12625491Y-13690960D02*
X12615967Y-13681436D01*
X12615967Y-13681436D02*
X12606443Y-13662388D01*
X12606443Y-13662388D02*
X12596920Y-13624293D01*
X12596920Y-13624293D02*
X12596920Y-13576674D01*
X12596920Y-13576674D02*
X12606443Y-13538579D01*
X12606443Y-13538579D02*
X12615967Y-13519531D01*
X12615967Y-13519531D02*
X12625491Y-13510008D01*
X12625491Y-13510008D02*
X12644539Y-13500484D01*
X12796920Y-13700484D02*
X12796920Y-13567150D01*
X12796920Y-13586198D02*
X12806443Y-13576674D01*
X12806443Y-13576674D02*
X12825491Y-13567150D01*
X12825491Y-13567150D02*
X12854063Y-13567150D01*
X12854063Y-13567150D02*
X12873110Y-13576674D01*
X12873110Y-13576674D02*
X12882634Y-13595722D01*
X12882634Y-13595722D02*
X12882634Y-13700484D01*
X12882634Y-13595722D02*
X12892158Y-13576674D01*
X12892158Y-13576674D02*
X12911205Y-13567150D01*
X12911205Y-13567150D02*
X12939777Y-13567150D01*
X12939777Y-13567150D02*
X12958824Y-13576674D01*
X12958824Y-13576674D02*
X12968348Y-13595722D01*
X12968348Y-13595722D02*
X12968348Y-13700484D01*
X13063586Y-13700484D02*
X13063586Y-13567150D01*
X13063586Y-13586198D02*
X13073110Y-13576674D01*
X13073110Y-13576674D02*
X13092158Y-13567150D01*
X13092158Y-13567150D02*
X13120729Y-13567150D01*
X13120729Y-13567150D02*
X13139777Y-13576674D01*
X13139777Y-13576674D02*
X13149301Y-13595722D01*
X13149301Y-13595722D02*
X13149301Y-13700484D01*
X13149301Y-13595722D02*
X13158824Y-13576674D01*
X13158824Y-13576674D02*
X13177872Y-13567150D01*
X13177872Y-13567150D02*
X13206443Y-13567150D01*
X13206443Y-13567150D02*
X13225491Y-13576674D01*
X13225491Y-13576674D02*
X13235015Y-13595722D01*
X13235015Y-13595722D02*
X13235015Y-13700484D01*
X13625491Y-13490960D02*
X13454063Y-13748103D01*
X13882634Y-13500484D02*
X13901682Y-13500484D01*
X13901682Y-13500484D02*
X13920729Y-13510008D01*
X13920729Y-13510008D02*
X13930253Y-13519531D01*
X13930253Y-13519531D02*
X13939777Y-13538579D01*
X13939777Y-13538579D02*
X13949301Y-13576674D01*
X13949301Y-13576674D02*
X13949301Y-13624293D01*
X13949301Y-13624293D02*
X13939777Y-13662388D01*
X13939777Y-13662388D02*
X13930253Y-13681436D01*
X13930253Y-13681436D02*
X13920729Y-13690960D01*
X13920729Y-13690960D02*
X13901682Y-13700484D01*
X13901682Y-13700484D02*
X13882634Y-13700484D01*
X13882634Y-13700484D02*
X13863586Y-13690960D01*
X13863586Y-13690960D02*
X13854063Y-13681436D01*
X13854063Y-13681436D02*
X13844539Y-13662388D01*
X13844539Y-13662388D02*
X13835015Y-13624293D01*
X13835015Y-13624293D02*
X13835015Y-13576674D01*
X13835015Y-13576674D02*
X13844539Y-13538579D01*
X13844539Y-13538579D02*
X13854063Y-13519531D01*
X13854063Y-13519531D02*
X13863586Y-13510008D01*
X13863586Y-13510008D02*
X13882634Y-13500484D01*
X14035015Y-13681436D02*
X14044539Y-13690960D01*
X14044539Y-13690960D02*
X14035015Y-13700484D01*
X14035015Y-13700484D02*
X14025491Y-13690960D01*
X14025491Y-13690960D02*
X14035015Y-13681436D01*
X14035015Y-13681436D02*
X14035015Y-13700484D01*
X14168348Y-13500484D02*
X14187396Y-13500484D01*
X14187396Y-13500484D02*
X14206444Y-13510008D01*
X14206444Y-13510008D02*
X14215967Y-13519531D01*
X14215967Y-13519531D02*
X14225491Y-13538579D01*
X14225491Y-13538579D02*
X14235015Y-13576674D01*
X14235015Y-13576674D02*
X14235015Y-13624293D01*
X14235015Y-13624293D02*
X14225491Y-13662388D01*
X14225491Y-13662388D02*
X14215967Y-13681436D01*
X14215967Y-13681436D02*
X14206444Y-13690960D01*
X14206444Y-13690960D02*
X14187396Y-13700484D01*
X14187396Y-13700484D02*
X14168348Y-13700484D01*
X14168348Y-13700484D02*
X14149301Y-13690960D01*
X14149301Y-13690960D02*
X14139777Y-13681436D01*
X14139777Y-13681436D02*
X14130253Y-13662388D01*
X14130253Y-13662388D02*
X14120729Y-13624293D01*
X14120729Y-13624293D02*
X14120729Y-13576674D01*
X14120729Y-13576674D02*
X14130253Y-13538579D01*
X14130253Y-13538579D02*
X14139777Y-13519531D01*
X14139777Y-13519531D02*
X14149301Y-13510008D01*
X14149301Y-13510008D02*
X14168348Y-13500484D01*
X14406444Y-13567150D02*
X14406444Y-13700484D01*
X14358825Y-13490960D02*
X14311206Y-13633817D01*
X14311206Y-13633817D02*
X14435015Y-13633817D01*
X14492158Y-13500484D02*
X14615967Y-13500484D01*
X14615967Y-13500484D02*
X14549301Y-13576674D01*
X14549301Y-13576674D02*
X14577872Y-13576674D01*
X14577872Y-13576674D02*
X14596920Y-13586198D01*
X14596920Y-13586198D02*
X14606444Y-13595722D01*
X14606444Y-13595722D02*
X14615967Y-13614769D01*
X14615967Y-13614769D02*
X14615967Y-13662388D01*
X14615967Y-13662388D02*
X14606444Y-13681436D01*
X14606444Y-13681436D02*
X14596920Y-13690960D01*
X14596920Y-13690960D02*
X14577872Y-13700484D01*
X14577872Y-13700484D02*
X14520729Y-13700484D01*
X14520729Y-13700484D02*
X14501682Y-13690960D01*
X14501682Y-13690960D02*
X14492158Y-13681436D01*
X14682634Y-13500484D02*
X14806444Y-13500484D01*
X14806444Y-13500484D02*
X14739777Y-13576674D01*
X14739777Y-13576674D02*
X14768348Y-13576674D01*
X14768348Y-13576674D02*
X14787396Y-13586198D01*
X14787396Y-13586198D02*
X14796920Y-13595722D01*
X14796920Y-13595722D02*
X14806444Y-13614769D01*
X14806444Y-13614769D02*
X14806444Y-13662388D01*
X14806444Y-13662388D02*
X14796920Y-13681436D01*
X14796920Y-13681436D02*
X14787396Y-13690960D01*
X14787396Y-13690960D02*
X14768348Y-13700484D01*
X14768348Y-13700484D02*
X14711206Y-13700484D01*
X14711206Y-13700484D02*
X14692158Y-13690960D01*
X14692158Y-13690960D02*
X14682634Y-13681436D01*
X14882634Y-13500484D02*
X14882634Y-13538579D01*
X14958825Y-13500484D02*
X14958825Y-13538579D01*
X15254063Y-13776674D02*
X15244539Y-13767150D01*
X15244539Y-13767150D02*
X15225491Y-13738579D01*
X15225491Y-13738579D02*
X15215968Y-13719531D01*
X15215968Y-13719531D02*
X15206444Y-13690960D01*
X15206444Y-13690960D02*
X15196920Y-13643341D01*
X15196920Y-13643341D02*
X15196920Y-13605246D01*
X15196920Y-13605246D02*
X15206444Y-13557627D01*
X15206444Y-13557627D02*
X15215968Y-13529055D01*
X15215968Y-13529055D02*
X15225491Y-13510008D01*
X15225491Y-13510008D02*
X15244539Y-13481436D01*
X15244539Y-13481436D02*
X15254063Y-13471912D01*
X15425491Y-13500484D02*
X15330253Y-13500484D01*
X15330253Y-13500484D02*
X15320729Y-13595722D01*
X15320729Y-13595722D02*
X15330253Y-13586198D01*
X15330253Y-13586198D02*
X15349301Y-13576674D01*
X15349301Y-13576674D02*
X15396920Y-13576674D01*
X15396920Y-13576674D02*
X15415968Y-13586198D01*
X15415968Y-13586198D02*
X15425491Y-13595722D01*
X15425491Y-13595722D02*
X15435015Y-13614769D01*
X15435015Y-13614769D02*
X15435015Y-13662388D01*
X15435015Y-13662388D02*
X15425491Y-13681436D01*
X15425491Y-13681436D02*
X15415968Y-13690960D01*
X15415968Y-13690960D02*
X15396920Y-13700484D01*
X15396920Y-13700484D02*
X15349301Y-13700484D01*
X15349301Y-13700484D02*
X15330253Y-13690960D01*
X15330253Y-13690960D02*
X15320729Y-13681436D01*
X15673110Y-13700484D02*
X15673110Y-13500484D01*
X15758825Y-13700484D02*
X15758825Y-13595722D01*
X15758825Y-13595722D02*
X15749301Y-13576674D01*
X15749301Y-13576674D02*
X15730253Y-13567150D01*
X15730253Y-13567150D02*
X15701682Y-13567150D01*
X15701682Y-13567150D02*
X15682634Y-13576674D01*
X15682634Y-13576674D02*
X15673110Y-13586198D01*
X15882634Y-13700484D02*
X15863587Y-13690960D01*
X15863587Y-13690960D02*
X15854063Y-13681436D01*
X15854063Y-13681436D02*
X15844539Y-13662388D01*
X15844539Y-13662388D02*
X15844539Y-13605246D01*
X15844539Y-13605246D02*
X15854063Y-13586198D01*
X15854063Y-13586198D02*
X15863587Y-13576674D01*
X15863587Y-13576674D02*
X15882634Y-13567150D01*
X15882634Y-13567150D02*
X15911206Y-13567150D01*
X15911206Y-13567150D02*
X15930253Y-13576674D01*
X15930253Y-13576674D02*
X15939777Y-13586198D01*
X15939777Y-13586198D02*
X15949301Y-13605246D01*
X15949301Y-13605246D02*
X15949301Y-13662388D01*
X15949301Y-13662388D02*
X15939777Y-13681436D01*
X15939777Y-13681436D02*
X15930253Y-13690960D01*
X15930253Y-13690960D02*
X15911206Y-13700484D01*
X15911206Y-13700484D02*
X15882634Y-13700484D01*
X16063587Y-13700484D02*
X16044539Y-13690960D01*
X16044539Y-13690960D02*
X16035015Y-13671912D01*
X16035015Y-13671912D02*
X16035015Y-13500484D01*
X16215968Y-13690960D02*
X16196920Y-13700484D01*
X16196920Y-13700484D02*
X16158825Y-13700484D01*
X16158825Y-13700484D02*
X16139777Y-13690960D01*
X16139777Y-13690960D02*
X16130253Y-13671912D01*
X16130253Y-13671912D02*
X16130253Y-13595722D01*
X16130253Y-13595722D02*
X16139777Y-13576674D01*
X16139777Y-13576674D02*
X16158825Y-13567150D01*
X16158825Y-13567150D02*
X16196920Y-13567150D01*
X16196920Y-13567150D02*
X16215968Y-13576674D01*
X16215968Y-13576674D02*
X16225491Y-13595722D01*
X16225491Y-13595722D02*
X16225491Y-13614769D01*
X16225491Y-13614769D02*
X16130253Y-13633817D01*
X16301682Y-13690960D02*
X16320730Y-13700484D01*
X16320730Y-13700484D02*
X16358825Y-13700484D01*
X16358825Y-13700484D02*
X16377872Y-13690960D01*
X16377872Y-13690960D02*
X16387396Y-13671912D01*
X16387396Y-13671912D02*
X16387396Y-13662388D01*
X16387396Y-13662388D02*
X16377872Y-13643341D01*
X16377872Y-13643341D02*
X16358825Y-13633817D01*
X16358825Y-13633817D02*
X16330253Y-13633817D01*
X16330253Y-13633817D02*
X16311206Y-13624293D01*
X16311206Y-13624293D02*
X16301682Y-13605246D01*
X16301682Y-13605246D02*
X16301682Y-13595722D01*
X16301682Y-13595722D02*
X16311206Y-13576674D01*
X16311206Y-13576674D02*
X16330253Y-13567150D01*
X16330253Y-13567150D02*
X16358825Y-13567150D01*
X16358825Y-13567150D02*
X16377872Y-13576674D01*
X16454063Y-13776674D02*
X16463587Y-13767150D01*
X16463587Y-13767150D02*
X16482634Y-13738579D01*
X16482634Y-13738579D02*
X16492158Y-13719531D01*
X16492158Y-13719531D02*
X16501682Y-13690960D01*
X16501682Y-13690960D02*
X16511206Y-13643341D01*
X16511206Y-13643341D02*
X16511206Y-13605246D01*
X16511206Y-13605246D02*
X16501682Y-13557627D01*
X16501682Y-13557627D02*
X16492158Y-13529055D01*
X16492158Y-13529055D02*
X16482634Y-13510008D01*
X16482634Y-13510008D02*
X16463587Y-13481436D01*
X16463587Y-13481436D02*
X16454063Y-13471912D01*
D13*
X11614000Y-13808000D02*
X11614000Y-13938000D01*
X11549000Y-13873000D02*
X11679000Y-13873000D01*
D11*
X12044539Y-13964484D02*
X11930253Y-13964484D01*
X11987396Y-13964484D02*
X11987396Y-13764484D01*
X11987396Y-13764484D02*
X11968348Y-13793055D01*
X11968348Y-13793055D02*
X11949301Y-13812103D01*
X11949301Y-13812103D02*
X11930253Y-13821627D01*
X12130253Y-13945436D02*
X12139777Y-13954960D01*
X12139777Y-13954960D02*
X12130253Y-13964484D01*
X12130253Y-13964484D02*
X12120729Y-13954960D01*
X12120729Y-13954960D02*
X12130253Y-13945436D01*
X12130253Y-13945436D02*
X12130253Y-13964484D01*
X12206443Y-13764484D02*
X12330253Y-13764484D01*
X12330253Y-13764484D02*
X12263586Y-13840674D01*
X12263586Y-13840674D02*
X12292158Y-13840674D01*
X12292158Y-13840674D02*
X12311205Y-13850198D01*
X12311205Y-13850198D02*
X12320729Y-13859722D01*
X12320729Y-13859722D02*
X12330253Y-13878769D01*
X12330253Y-13878769D02*
X12330253Y-13926388D01*
X12330253Y-13926388D02*
X12320729Y-13945436D01*
X12320729Y-13945436D02*
X12311205Y-13954960D01*
X12311205Y-13954960D02*
X12292158Y-13964484D01*
X12292158Y-13964484D02*
X12235015Y-13964484D01*
X12235015Y-13964484D02*
X12215967Y-13954960D01*
X12215967Y-13954960D02*
X12206443Y-13945436D01*
X12454062Y-13764484D02*
X12473110Y-13764484D01*
X12473110Y-13764484D02*
X12492158Y-13774008D01*
X12492158Y-13774008D02*
X12501682Y-13783531D01*
X12501682Y-13783531D02*
X12511205Y-13802579D01*
X12511205Y-13802579D02*
X12520729Y-13840674D01*
X12520729Y-13840674D02*
X12520729Y-13888293D01*
X12520729Y-13888293D02*
X12511205Y-13926388D01*
X12511205Y-13926388D02*
X12501682Y-13945436D01*
X12501682Y-13945436D02*
X12492158Y-13954960D01*
X12492158Y-13954960D02*
X12473110Y-13964484D01*
X12473110Y-13964484D02*
X12454062Y-13964484D01*
X12454062Y-13964484D02*
X12435015Y-13954960D01*
X12435015Y-13954960D02*
X12425491Y-13945436D01*
X12425491Y-13945436D02*
X12415967Y-13926388D01*
X12415967Y-13926388D02*
X12406443Y-13888293D01*
X12406443Y-13888293D02*
X12406443Y-13840674D01*
X12406443Y-13840674D02*
X12415967Y-13802579D01*
X12415967Y-13802579D02*
X12425491Y-13783531D01*
X12425491Y-13783531D02*
X12435015Y-13774008D01*
X12435015Y-13774008D02*
X12454062Y-13764484D01*
X12644539Y-13764484D02*
X12663586Y-13764484D01*
X12663586Y-13764484D02*
X12682634Y-13774008D01*
X12682634Y-13774008D02*
X12692158Y-13783531D01*
X12692158Y-13783531D02*
X12701682Y-13802579D01*
X12701682Y-13802579D02*
X12711205Y-13840674D01*
X12711205Y-13840674D02*
X12711205Y-13888293D01*
X12711205Y-13888293D02*
X12701682Y-13926388D01*
X12701682Y-13926388D02*
X12692158Y-13945436D01*
X12692158Y-13945436D02*
X12682634Y-13954960D01*
X12682634Y-13954960D02*
X12663586Y-13964484D01*
X12663586Y-13964484D02*
X12644539Y-13964484D01*
X12644539Y-13964484D02*
X12625491Y-13954960D01*
X12625491Y-13954960D02*
X12615967Y-13945436D01*
X12615967Y-13945436D02*
X12606443Y-13926388D01*
X12606443Y-13926388D02*
X12596920Y-13888293D01*
X12596920Y-13888293D02*
X12596920Y-13840674D01*
X12596920Y-13840674D02*
X12606443Y-13802579D01*
X12606443Y-13802579D02*
X12615967Y-13783531D01*
X12615967Y-13783531D02*
X12625491Y-13774008D01*
X12625491Y-13774008D02*
X12644539Y-13764484D01*
X12796920Y-13964484D02*
X12796920Y-13831150D01*
X12796920Y-13850198D02*
X12806443Y-13840674D01*
X12806443Y-13840674D02*
X12825491Y-13831150D01*
X12825491Y-13831150D02*
X12854063Y-13831150D01*
X12854063Y-13831150D02*
X12873110Y-13840674D01*
X12873110Y-13840674D02*
X12882634Y-13859722D01*
X12882634Y-13859722D02*
X12882634Y-13964484D01*
X12882634Y-13859722D02*
X12892158Y-13840674D01*
X12892158Y-13840674D02*
X12911205Y-13831150D01*
X12911205Y-13831150D02*
X12939777Y-13831150D01*
X12939777Y-13831150D02*
X12958824Y-13840674D01*
X12958824Y-13840674D02*
X12968348Y-13859722D01*
X12968348Y-13859722D02*
X12968348Y-13964484D01*
X13063586Y-13964484D02*
X13063586Y-13831150D01*
X13063586Y-13850198D02*
X13073110Y-13840674D01*
X13073110Y-13840674D02*
X13092158Y-13831150D01*
X13092158Y-13831150D02*
X13120729Y-13831150D01*
X13120729Y-13831150D02*
X13139777Y-13840674D01*
X13139777Y-13840674D02*
X13149301Y-13859722D01*
X13149301Y-13859722D02*
X13149301Y-13964484D01*
X13149301Y-13859722D02*
X13158824Y-13840674D01*
X13158824Y-13840674D02*
X13177872Y-13831150D01*
X13177872Y-13831150D02*
X13206443Y-13831150D01*
X13206443Y-13831150D02*
X13225491Y-13840674D01*
X13225491Y-13840674D02*
X13235015Y-13859722D01*
X13235015Y-13859722D02*
X13235015Y-13964484D01*
X13625491Y-13754960D02*
X13454063Y-14012103D01*
X13882634Y-13764484D02*
X13901682Y-13764484D01*
X13901682Y-13764484D02*
X13920729Y-13774008D01*
X13920729Y-13774008D02*
X13930253Y-13783531D01*
X13930253Y-13783531D02*
X13939777Y-13802579D01*
X13939777Y-13802579D02*
X13949301Y-13840674D01*
X13949301Y-13840674D02*
X13949301Y-13888293D01*
X13949301Y-13888293D02*
X13939777Y-13926388D01*
X13939777Y-13926388D02*
X13930253Y-13945436D01*
X13930253Y-13945436D02*
X13920729Y-13954960D01*
X13920729Y-13954960D02*
X13901682Y-13964484D01*
X13901682Y-13964484D02*
X13882634Y-13964484D01*
X13882634Y-13964484D02*
X13863586Y-13954960D01*
X13863586Y-13954960D02*
X13854063Y-13945436D01*
X13854063Y-13945436D02*
X13844539Y-13926388D01*
X13844539Y-13926388D02*
X13835015Y-13888293D01*
X13835015Y-13888293D02*
X13835015Y-13840674D01*
X13835015Y-13840674D02*
X13844539Y-13802579D01*
X13844539Y-13802579D02*
X13854063Y-13783531D01*
X13854063Y-13783531D02*
X13863586Y-13774008D01*
X13863586Y-13774008D02*
X13882634Y-13764484D01*
X14035015Y-13945436D02*
X14044539Y-13954960D01*
X14044539Y-13954960D02*
X14035015Y-13964484D01*
X14035015Y-13964484D02*
X14025491Y-13954960D01*
X14025491Y-13954960D02*
X14035015Y-13945436D01*
X14035015Y-13945436D02*
X14035015Y-13964484D01*
X14168348Y-13764484D02*
X14187396Y-13764484D01*
X14187396Y-13764484D02*
X14206444Y-13774008D01*
X14206444Y-13774008D02*
X14215967Y-13783531D01*
X14215967Y-13783531D02*
X14225491Y-13802579D01*
X14225491Y-13802579D02*
X14235015Y-13840674D01*
X14235015Y-13840674D02*
X14235015Y-13888293D01*
X14235015Y-13888293D02*
X14225491Y-13926388D01*
X14225491Y-13926388D02*
X14215967Y-13945436D01*
X14215967Y-13945436D02*
X14206444Y-13954960D01*
X14206444Y-13954960D02*
X14187396Y-13964484D01*
X14187396Y-13964484D02*
X14168348Y-13964484D01*
X14168348Y-13964484D02*
X14149301Y-13954960D01*
X14149301Y-13954960D02*
X14139777Y-13945436D01*
X14139777Y-13945436D02*
X14130253Y-13926388D01*
X14130253Y-13926388D02*
X14120729Y-13888293D01*
X14120729Y-13888293D02*
X14120729Y-13840674D01*
X14120729Y-13840674D02*
X14130253Y-13802579D01*
X14130253Y-13802579D02*
X14139777Y-13783531D01*
X14139777Y-13783531D02*
X14149301Y-13774008D01*
X14149301Y-13774008D02*
X14168348Y-13764484D01*
X14415967Y-13764484D02*
X14320729Y-13764484D01*
X14320729Y-13764484D02*
X14311206Y-13859722D01*
X14311206Y-13859722D02*
X14320729Y-13850198D01*
X14320729Y-13850198D02*
X14339777Y-13840674D01*
X14339777Y-13840674D02*
X14387396Y-13840674D01*
X14387396Y-13840674D02*
X14406444Y-13850198D01*
X14406444Y-13850198D02*
X14415967Y-13859722D01*
X14415967Y-13859722D02*
X14425491Y-13878769D01*
X14425491Y-13878769D02*
X14425491Y-13926388D01*
X14425491Y-13926388D02*
X14415967Y-13945436D01*
X14415967Y-13945436D02*
X14406444Y-13954960D01*
X14406444Y-13954960D02*
X14387396Y-13964484D01*
X14387396Y-13964484D02*
X14339777Y-13964484D01*
X14339777Y-13964484D02*
X14320729Y-13954960D01*
X14320729Y-13954960D02*
X14311206Y-13945436D01*
X14615967Y-13964484D02*
X14501682Y-13964484D01*
X14558825Y-13964484D02*
X14558825Y-13764484D01*
X14558825Y-13764484D02*
X14539777Y-13793055D01*
X14539777Y-13793055D02*
X14520729Y-13812103D01*
X14520729Y-13812103D02*
X14501682Y-13821627D01*
X14692158Y-13783531D02*
X14701682Y-13774008D01*
X14701682Y-13774008D02*
X14720729Y-13764484D01*
X14720729Y-13764484D02*
X14768348Y-13764484D01*
X14768348Y-13764484D02*
X14787396Y-13774008D01*
X14787396Y-13774008D02*
X14796920Y-13783531D01*
X14796920Y-13783531D02*
X14806444Y-13802579D01*
X14806444Y-13802579D02*
X14806444Y-13821627D01*
X14806444Y-13821627D02*
X14796920Y-13850198D01*
X14796920Y-13850198D02*
X14682634Y-13964484D01*
X14682634Y-13964484D02*
X14806444Y-13964484D01*
X14882634Y-13764484D02*
X14882634Y-13802579D01*
X14958825Y-13764484D02*
X14958825Y-13802579D01*
X15254063Y-14040674D02*
X15244539Y-14031150D01*
X15244539Y-14031150D02*
X15225491Y-14002579D01*
X15225491Y-14002579D02*
X15215968Y-13983531D01*
X15215968Y-13983531D02*
X15206444Y-13954960D01*
X15206444Y-13954960D02*
X15196920Y-13907341D01*
X15196920Y-13907341D02*
X15196920Y-13869246D01*
X15196920Y-13869246D02*
X15206444Y-13821627D01*
X15206444Y-13821627D02*
X15215968Y-13793055D01*
X15215968Y-13793055D02*
X15225491Y-13774008D01*
X15225491Y-13774008D02*
X15244539Y-13745436D01*
X15244539Y-13745436D02*
X15254063Y-13735912D01*
X15415968Y-13831150D02*
X15415968Y-13964484D01*
X15368348Y-13754960D02*
X15320729Y-13897817D01*
X15320729Y-13897817D02*
X15444539Y-13897817D01*
X15673110Y-13964484D02*
X15673110Y-13764484D01*
X15758825Y-13964484D02*
X15758825Y-13859722D01*
X15758825Y-13859722D02*
X15749301Y-13840674D01*
X15749301Y-13840674D02*
X15730253Y-13831150D01*
X15730253Y-13831150D02*
X15701682Y-13831150D01*
X15701682Y-13831150D02*
X15682634Y-13840674D01*
X15682634Y-13840674D02*
X15673110Y-13850198D01*
X15882634Y-13964484D02*
X15863587Y-13954960D01*
X15863587Y-13954960D02*
X15854063Y-13945436D01*
X15854063Y-13945436D02*
X15844539Y-13926388D01*
X15844539Y-13926388D02*
X15844539Y-13869246D01*
X15844539Y-13869246D02*
X15854063Y-13850198D01*
X15854063Y-13850198D02*
X15863587Y-13840674D01*
X15863587Y-13840674D02*
X15882634Y-13831150D01*
X15882634Y-13831150D02*
X15911206Y-13831150D01*
X15911206Y-13831150D02*
X15930253Y-13840674D01*
X15930253Y-13840674D02*
X15939777Y-13850198D01*
X15939777Y-13850198D02*
X15949301Y-13869246D01*
X15949301Y-13869246D02*
X15949301Y-13926388D01*
X15949301Y-13926388D02*
X15939777Y-13945436D01*
X15939777Y-13945436D02*
X15930253Y-13954960D01*
X15930253Y-13954960D02*
X15911206Y-13964484D01*
X15911206Y-13964484D02*
X15882634Y-13964484D01*
X16063587Y-13964484D02*
X16044539Y-13954960D01*
X16044539Y-13954960D02*
X16035015Y-13935912D01*
X16035015Y-13935912D02*
X16035015Y-13764484D01*
X16215968Y-13954960D02*
X16196920Y-13964484D01*
X16196920Y-13964484D02*
X16158825Y-13964484D01*
X16158825Y-13964484D02*
X16139777Y-13954960D01*
X16139777Y-13954960D02*
X16130253Y-13935912D01*
X16130253Y-13935912D02*
X16130253Y-13859722D01*
X16130253Y-13859722D02*
X16139777Y-13840674D01*
X16139777Y-13840674D02*
X16158825Y-13831150D01*
X16158825Y-13831150D02*
X16196920Y-13831150D01*
X16196920Y-13831150D02*
X16215968Y-13840674D01*
X16215968Y-13840674D02*
X16225491Y-13859722D01*
X16225491Y-13859722D02*
X16225491Y-13878769D01*
X16225491Y-13878769D02*
X16130253Y-13897817D01*
X16301682Y-13954960D02*
X16320730Y-13964484D01*
X16320730Y-13964484D02*
X16358825Y-13964484D01*
X16358825Y-13964484D02*
X16377872Y-13954960D01*
X16377872Y-13954960D02*
X16387396Y-13935912D01*
X16387396Y-13935912D02*
X16387396Y-13926388D01*
X16387396Y-13926388D02*
X16377872Y-13907341D01*
X16377872Y-13907341D02*
X16358825Y-13897817D01*
X16358825Y-13897817D02*
X16330253Y-13897817D01*
X16330253Y-13897817D02*
X16311206Y-13888293D01*
X16311206Y-13888293D02*
X16301682Y-13869246D01*
X16301682Y-13869246D02*
X16301682Y-13859722D01*
X16301682Y-13859722D02*
X16311206Y-13840674D01*
X16311206Y-13840674D02*
X16330253Y-13831150D01*
X16330253Y-13831150D02*
X16358825Y-13831150D01*
X16358825Y-13831150D02*
X16377872Y-13840674D01*
X16454063Y-14040674D02*
X16463587Y-14031150D01*
X16463587Y-14031150D02*
X16482634Y-14002579D01*
X16482634Y-14002579D02*
X16492158Y-13983531D01*
X16492158Y-13983531D02*
X16501682Y-13954960D01*
X16501682Y-13954960D02*
X16511206Y-13907341D01*
X16511206Y-13907341D02*
X16511206Y-13869246D01*
X16511206Y-13869246D02*
X16501682Y-13821627D01*
X16501682Y-13821627D02*
X16492158Y-13793055D01*
X16492158Y-13793055D02*
X16482634Y-13774008D01*
X16482634Y-13774008D02*
X16463587Y-13745436D01*
X16463587Y-13745436D02*
X16454063Y-13735912D01*
M02*
