%TF.GenerationSoftware,KiCad,Pcbnew,8.0.8*%
%TF.CreationDate,2025-02-09T10:36:45+05:30*%
%TF.ProjectId,pcb_remote_3V,7063625f-7265-46d6-9f74-655f33562e6b,prageethM*%
%TF.SameCoordinates,Original*%
%TF.FileFunction,Copper,L1,Top*%
%TF.FilePolarity,Positive*%
%FSLAX46Y46*%
G04 Gerber Fmt 4.6, Leading zero omitted, Abs format (unit mm)*
G04 Created by KiCad (PCBNEW 8.0.8) date 2025-02-09 10:36:45*
%MOMM*%
%LPD*%
G01*
G04 APERTURE LIST*
%TA.AperFunction,ComponentPad*%
%ADD10R,1.700000X1.700000*%
%TD*%
%TA.AperFunction,ComponentPad*%
%ADD11O,1.700000X1.700000*%
%TD*%
%TA.AperFunction,ComponentPad*%
%ADD12C,1.200000*%
%TD*%
%TA.AperFunction,ComponentPad*%
%ADD13R,2.400000X2.400000*%
%TD*%
%TA.AperFunction,ComponentPad*%
%ADD14C,2.400000*%
%TD*%
%TA.AperFunction,Conductor*%
%ADD15C,1.200000*%
%TD*%
%TA.AperFunction,Conductor*%
%ADD16C,1.000000*%
%TD*%
G04 APERTURE END LIST*
D10*
%TO.P,U1,1,ADJ*%
%TO.N,GND*%
X157480000Y-96520000D03*
D11*
%TO.P,U1,2,VO*%
%TO.N,/3V_OUT*%
X157480000Y-99060000D03*
%TO.P,U1,3,VI*%
%TO.N,/ESP_PWR*%
X157480000Y-101600000D03*
%TD*%
D12*
%TO.P,C1,1,+*%
%TO.N,/ESP_PWR*%
X144780000Y-93980000D03*
%TO.P,C1,2,-*%
%TO.N,GND*%
X146780000Y-93980000D03*
%TD*%
D13*
%TO.P,J2,1*%
%TO.N,/3V_OUT*%
X147940000Y-78740000D03*
D14*
%TO.P,J2,2*%
X151440000Y-78740000D03*
%TO.P,J2,3*%
X154940000Y-78740000D03*
%TO.P,J2,4*%
%TO.N,unconnected-(J2-Pad4)*%
X158440000Y-78740000D03*
%TD*%
D13*
%TO.P,J1,1*%
%TO.N,GND*%
X169220000Y-101600000D03*
D14*
%TO.P,J1,2*%
%TO.N,/ESP_PWR*%
X172720000Y-101600000D03*
%TD*%
D12*
%TO.P,C2,1,+*%
%TO.N,/3V_OUT*%
X144780000Y-104140000D03*
%TO.P,C2,2,-*%
%TO.N,GND*%
X146780000Y-104140000D03*
%TD*%
D15*
%TO.N,/ESP_PWR*%
X172720000Y-103297056D02*
X171877056Y-104140000D01*
X172720000Y-99761522D02*
X172720000Y-101600000D01*
X172720000Y-101600000D02*
X172720000Y-103297056D01*
X160020000Y-104140000D02*
X157480000Y-101600000D01*
X159130000Y-95220000D02*
X168178478Y-95220000D01*
X168178478Y-95220000D02*
X172720000Y-99761522D01*
X171877056Y-104140000D02*
X160020000Y-104140000D01*
X156490000Y-92580000D02*
X159130000Y-95220000D01*
X144780000Y-93980000D02*
X146180000Y-92580000D01*
X146180000Y-92580000D02*
X156490000Y-92580000D01*
D16*
%TO.N,GND*%
X167640000Y-96520000D02*
X157480000Y-96520000D01*
X154371522Y-99628478D02*
X157480000Y-96520000D01*
X169220000Y-98100000D02*
X167640000Y-96520000D01*
X146780000Y-104301522D02*
X147858478Y-105380000D01*
X147858478Y-105380000D02*
X153131522Y-105380000D01*
X146780000Y-104140000D02*
X146780000Y-104301522D01*
X154940000Y-93980000D02*
X157480000Y-96520000D01*
X153131522Y-105380000D02*
X154371522Y-104140000D01*
X169220000Y-101600000D02*
X169220000Y-98100000D01*
X154371522Y-104140000D02*
X154371522Y-99628478D01*
X146780000Y-93980000D02*
X154940000Y-93980000D01*
D15*
%TO.N,/3V_OUT*%
X142240000Y-83820000D02*
X142240000Y-101600000D01*
X155830000Y-104520000D02*
X153670000Y-106680000D01*
X154940000Y-78740000D02*
X152400000Y-81280000D01*
X152400000Y-81280000D02*
X149860000Y-81280000D01*
X149860000Y-80320000D02*
X149860000Y-81280000D01*
X149860000Y-81280000D02*
X147320000Y-81280000D01*
X147320000Y-81280000D02*
X144780000Y-81280000D01*
X157480000Y-99060000D02*
X155830000Y-100710000D01*
X147940000Y-78740000D02*
X147940000Y-80660000D01*
X147940000Y-80660000D02*
X147320000Y-81280000D01*
X142240000Y-101600000D02*
X144780000Y-104140000D01*
X153670000Y-106680000D02*
X147320000Y-106680000D01*
X147320000Y-106680000D02*
X144780000Y-104140000D01*
X144780000Y-81280000D02*
X142240000Y-83820000D01*
X151440000Y-78740000D02*
X149860000Y-80320000D01*
X155830000Y-100710000D02*
X155830000Y-104520000D01*
%TD*%
%TA.AperFunction,NonConductor*%
G36*
X182322539Y-71640185D02*
G01*
X182368294Y-71692989D01*
X182379500Y-71744500D01*
X182379500Y-111135500D01*
X182359815Y-111202539D01*
X182307011Y-111248294D01*
X182255500Y-111259500D01*
X132704500Y-111259500D01*
X132637461Y-111239815D01*
X132591706Y-111187011D01*
X132580500Y-111135500D01*
X132580500Y-83733389D01*
X141139500Y-83733389D01*
X141139500Y-101686610D01*
X141166597Y-101857697D01*
X141220128Y-102022447D01*
X141298768Y-102176788D01*
X141400586Y-102316928D01*
X141400588Y-102316930D01*
X143941722Y-104858064D01*
X143952994Y-104871017D01*
X143963236Y-104884579D01*
X144017727Y-104934254D01*
X144021847Y-104938189D01*
X146603072Y-107519414D01*
X146743212Y-107621232D01*
X146816131Y-107658386D01*
X146897549Y-107699871D01*
X146897551Y-107699871D01*
X146897554Y-107699873D01*
X147062299Y-107753402D01*
X147233389Y-107780500D01*
X147233390Y-107780500D01*
X153756610Y-107780500D01*
X153756611Y-107780500D01*
X153927701Y-107753402D01*
X154092445Y-107699873D01*
X154246788Y-107621232D01*
X154386928Y-107519414D01*
X156669414Y-105236928D01*
X156771232Y-105096788D01*
X156849873Y-104942446D01*
X156903402Y-104777701D01*
X156930500Y-104606611D01*
X156930500Y-104433390D01*
X156930500Y-103012502D01*
X156950185Y-102945463D01*
X157002989Y-102899708D01*
X157072147Y-102889764D01*
X157086580Y-102892724D01*
X157231800Y-102931635D01*
X157287386Y-102963728D01*
X159303072Y-104979414D01*
X159443212Y-105081232D01*
X159597554Y-105159873D01*
X159684594Y-105188154D01*
X159762299Y-105213402D01*
X159933389Y-105240500D01*
X159933390Y-105240500D01*
X171963666Y-105240500D01*
X171963667Y-105240500D01*
X172134757Y-105213402D01*
X172299501Y-105159873D01*
X172453844Y-105081232D01*
X172593984Y-104979414D01*
X173559414Y-104013984D01*
X173661232Y-103873844D01*
X173739873Y-103719501D01*
X173793402Y-103554757D01*
X173820500Y-103383667D01*
X173820500Y-103210445D01*
X173820500Y-102952739D01*
X173840185Y-102885700D01*
X173860159Y-102861840D01*
X173970050Y-102759877D01*
X174128959Y-102560612D01*
X174256393Y-102339888D01*
X174349508Y-102102637D01*
X174406222Y-101854157D01*
X174425268Y-101600000D01*
X174406222Y-101345843D01*
X174349508Y-101097363D01*
X174256393Y-100860112D01*
X174128959Y-100639388D01*
X173970050Y-100440123D01*
X173970049Y-100440122D01*
X173970046Y-100440118D01*
X173860159Y-100338159D01*
X173824404Y-100278131D01*
X173820500Y-100247260D01*
X173820500Y-99674911D01*
X173797538Y-99529937D01*
X173793402Y-99503821D01*
X173739873Y-99339077D01*
X173661232Y-99184734D01*
X173559414Y-99044594D01*
X173436928Y-98922108D01*
X168895406Y-94380586D01*
X168755266Y-94278768D01*
X168600923Y-94200127D01*
X168436179Y-94146598D01*
X168436177Y-94146597D01*
X168436176Y-94146597D01*
X168304749Y-94125781D01*
X168265089Y-94119500D01*
X168265088Y-94119500D01*
X159637204Y-94119500D01*
X159570165Y-94099815D01*
X159549523Y-94083181D01*
X157206930Y-91740588D01*
X157206928Y-91740586D01*
X157066788Y-91638768D01*
X156912445Y-91560127D01*
X156747701Y-91506598D01*
X156747699Y-91506597D01*
X156747698Y-91506597D01*
X156616271Y-91485781D01*
X156576611Y-91479500D01*
X146266611Y-91479500D01*
X146093389Y-91479500D01*
X146053728Y-91485781D01*
X145922302Y-91506597D01*
X145757552Y-91560128D01*
X145603211Y-91638768D01*
X145523256Y-91696859D01*
X145463072Y-91740586D01*
X145463070Y-91740588D01*
X145463069Y-91740588D01*
X144021846Y-93181810D01*
X144017704Y-93185765D01*
X143963237Y-93235418D01*
X143963234Y-93235422D01*
X143952991Y-93248985D01*
X143941742Y-93261914D01*
X143940600Y-93263056D01*
X143940584Y-93263074D01*
X143896324Y-93323991D01*
X143894962Y-93325829D01*
X143840332Y-93398170D01*
X143840323Y-93398184D01*
X143797352Y-93484483D01*
X143796837Y-93485505D01*
X143760128Y-93557550D01*
X143758267Y-93562045D01*
X143758013Y-93561939D01*
X143754460Y-93570621D01*
X143749418Y-93580746D01*
X143749417Y-93580751D01*
X143727699Y-93657079D01*
X143726364Y-93661461D01*
X143706599Y-93722290D01*
X143706598Y-93722294D01*
X143704568Y-93735115D01*
X143701361Y-93749649D01*
X143693603Y-93776914D01*
X143693603Y-93776915D01*
X143687847Y-93839022D01*
X143686850Y-93846974D01*
X143679500Y-93893388D01*
X143679500Y-93923382D01*
X143678971Y-93934823D01*
X143674785Y-93979998D01*
X143674785Y-93980000D01*
X143678971Y-94025175D01*
X143679500Y-94036616D01*
X143679500Y-94066611D01*
X143686850Y-94113024D01*
X143687847Y-94120976D01*
X143693602Y-94183081D01*
X143701362Y-94210353D01*
X143704568Y-94224885D01*
X143706598Y-94237702D01*
X143726364Y-94298537D01*
X143727699Y-94302918D01*
X143749418Y-94379250D01*
X143754457Y-94389369D01*
X143758006Y-94398052D01*
X143758264Y-94397946D01*
X143760126Y-94402443D01*
X143760127Y-94402445D01*
X143796915Y-94474646D01*
X143797281Y-94475373D01*
X143811804Y-94504538D01*
X143840328Y-94561823D01*
X143894999Y-94634218D01*
X143896364Y-94636061D01*
X143940582Y-94696924D01*
X143941722Y-94698064D01*
X143952994Y-94711017D01*
X143963236Y-94724579D01*
X144017727Y-94774254D01*
X144021847Y-94778189D01*
X144063072Y-94819414D01*
X144078164Y-94830379D01*
X144088810Y-94839055D01*
X144113959Y-94861981D01*
X144113962Y-94861984D01*
X144162169Y-94891831D01*
X144169776Y-94896938D01*
X144203212Y-94921232D01*
X144234975Y-94937416D01*
X144234989Y-94937423D01*
X144243958Y-94942473D01*
X144287363Y-94969348D01*
X144287367Y-94969349D01*
X144287370Y-94969351D01*
X144309997Y-94978116D01*
X144324374Y-94983686D01*
X144324380Y-94983688D01*
X144335876Y-94988827D01*
X144357555Y-94999873D01*
X144407629Y-95016143D01*
X144414095Y-95018444D01*
X144477540Y-95043023D01*
X144477542Y-95043023D01*
X144477544Y-95043024D01*
X144499828Y-95047189D01*
X144515358Y-95051146D01*
X144522299Y-95053402D01*
X144591127Y-95064303D01*
X144594413Y-95064870D01*
X144678024Y-95080500D01*
X144678026Y-95080500D01*
X144881973Y-95080500D01*
X144881976Y-95080500D01*
X144965609Y-95064865D01*
X144968858Y-95064305D01*
X145037701Y-95053402D01*
X145044642Y-95051146D01*
X145060173Y-95047188D01*
X145082456Y-95043024D01*
X145082462Y-95043022D01*
X145089582Y-95040263D01*
X145145925Y-95018435D01*
X145152318Y-95016159D01*
X145202445Y-94999873D01*
X145224126Y-94988825D01*
X145235611Y-94983691D01*
X145272637Y-94969348D01*
X145316042Y-94942472D01*
X145324999Y-94937428D01*
X145356788Y-94921232D01*
X145390213Y-94896946D01*
X145397822Y-94891835D01*
X145446041Y-94861981D01*
X145471189Y-94839053D01*
X145481830Y-94830382D01*
X145496928Y-94819414D01*
X145538171Y-94778169D01*
X145542269Y-94774256D01*
X145596764Y-94724579D01*
X145607005Y-94711016D01*
X145618269Y-94698071D01*
X145702648Y-94613692D01*
X145763969Y-94580209D01*
X145833661Y-94585193D01*
X145889281Y-94626648D01*
X145942352Y-94696924D01*
X145952994Y-94711017D01*
X145963237Y-94724580D01*
X146113958Y-94861980D01*
X146113960Y-94861982D01*
X146209642Y-94921225D01*
X146287363Y-94969348D01*
X146477544Y-95043024D01*
X146678024Y-95080500D01*
X146678026Y-95080500D01*
X146881974Y-95080500D01*
X146881976Y-95080500D01*
X147082456Y-95043024D01*
X147222237Y-94988873D01*
X147267031Y-94980500D01*
X154474218Y-94980500D01*
X154541257Y-95000185D01*
X154561899Y-95016819D01*
X155977398Y-96432318D01*
X156010883Y-96493641D01*
X156005899Y-96563333D01*
X155977398Y-96607680D01*
X154771286Y-97813793D01*
X153733742Y-98851337D01*
X153733740Y-98851339D01*
X153664060Y-98921018D01*
X153594381Y-98990697D01*
X153484893Y-99154557D01*
X153484886Y-99154570D01*
X153409472Y-99336638D01*
X153409469Y-99336648D01*
X153371022Y-99529934D01*
X153371022Y-103674218D01*
X153351337Y-103741257D01*
X153334703Y-103761899D01*
X152753421Y-104343181D01*
X152692098Y-104376666D01*
X152665740Y-104379500D01*
X148324260Y-104379500D01*
X148257221Y-104359815D01*
X148236579Y-104343181D01*
X147901740Y-104008342D01*
X147868255Y-103947019D01*
X147867563Y-103942531D01*
X147867450Y-103942553D01*
X147866398Y-103936930D01*
X147866397Y-103936917D01*
X147810582Y-103740750D01*
X147803028Y-103725580D01*
X147748196Y-103615461D01*
X147719673Y-103558179D01*
X147660704Y-103480091D01*
X147596762Y-103395418D01*
X147446041Y-103258019D01*
X147446039Y-103258017D01*
X147272642Y-103150655D01*
X147272635Y-103150651D01*
X147177546Y-103113814D01*
X147082456Y-103076976D01*
X146881976Y-103039500D01*
X146678024Y-103039500D01*
X146477544Y-103076976D01*
X146477541Y-103076976D01*
X146477541Y-103076977D01*
X146287364Y-103150651D01*
X146287357Y-103150655D01*
X146113960Y-103258017D01*
X146113958Y-103258019D01*
X145963237Y-103395419D01*
X145889282Y-103493351D01*
X145833173Y-103534987D01*
X145763461Y-103539678D01*
X145702647Y-103506305D01*
X145618277Y-103421935D01*
X145607003Y-103408980D01*
X145596762Y-103395418D01*
X145542294Y-103345765D01*
X145538151Y-103341809D01*
X143376819Y-101180477D01*
X143343334Y-101119154D01*
X143340500Y-101092796D01*
X143340500Y-84327204D01*
X143360185Y-84260165D01*
X143376819Y-84239523D01*
X145199523Y-82416819D01*
X145260846Y-82383334D01*
X145287204Y-82380500D01*
X152486610Y-82380500D01*
X152486611Y-82380500D01*
X152657701Y-82353402D01*
X152822445Y-82299873D01*
X152976788Y-82221232D01*
X153116928Y-82119414D01*
X154759522Y-80476818D01*
X154820845Y-80443334D01*
X154847203Y-80440500D01*
X155067435Y-80440500D01*
X155319458Y-80402513D01*
X155563004Y-80327389D01*
X155792634Y-80216805D01*
X156003217Y-80073232D01*
X156190050Y-79899877D01*
X156348959Y-79700612D01*
X156476393Y-79479888D01*
X156569508Y-79242637D01*
X156569510Y-79242624D01*
X156570878Y-79238196D01*
X156572324Y-79238642D01*
X156603213Y-79183412D01*
X156664873Y-79150552D01*
X156734510Y-79156243D01*
X156790016Y-79198680D01*
X156808192Y-79238482D01*
X156809122Y-79238196D01*
X156810490Y-79242630D01*
X156810492Y-79242637D01*
X156903607Y-79479888D01*
X157031041Y-79700612D01*
X157189950Y-79899877D01*
X157376783Y-80073232D01*
X157587366Y-80216805D01*
X157587371Y-80216807D01*
X157587372Y-80216808D01*
X157587373Y-80216809D01*
X157677325Y-80260127D01*
X157816992Y-80327387D01*
X157816993Y-80327387D01*
X157816996Y-80327389D01*
X158060542Y-80402513D01*
X158312565Y-80440500D01*
X158567435Y-80440500D01*
X158819458Y-80402513D01*
X159063004Y-80327389D01*
X159292634Y-80216805D01*
X159503217Y-80073232D01*
X159690050Y-79899877D01*
X159848959Y-79700612D01*
X159976393Y-79479888D01*
X160069508Y-79242637D01*
X160126222Y-78994157D01*
X160145268Y-78740000D01*
X160126222Y-78485843D01*
X160069508Y-78237363D01*
X159976393Y-78000112D01*
X159848959Y-77779388D01*
X159690050Y-77580123D01*
X159503217Y-77406768D01*
X159292634Y-77263195D01*
X159292630Y-77263193D01*
X159292627Y-77263191D01*
X159292626Y-77263190D01*
X159063006Y-77152612D01*
X159063008Y-77152612D01*
X158819466Y-77077489D01*
X158819462Y-77077488D01*
X158819458Y-77077487D01*
X158698231Y-77059214D01*
X158567440Y-77039500D01*
X158567435Y-77039500D01*
X158312565Y-77039500D01*
X158312559Y-77039500D01*
X158155609Y-77063157D01*
X158060542Y-77077487D01*
X158060539Y-77077488D01*
X158060533Y-77077489D01*
X157816992Y-77152612D01*
X157587373Y-77263190D01*
X157587372Y-77263191D01*
X157376782Y-77406768D01*
X157189952Y-77580121D01*
X157189950Y-77580123D01*
X157031041Y-77779388D01*
X156903608Y-78000109D01*
X156810492Y-78237362D01*
X156809122Y-78241804D01*
X156807677Y-78241358D01*
X156776780Y-78296593D01*
X156715117Y-78329449D01*
X156645480Y-78323752D01*
X156589978Y-78281311D01*
X156571805Y-78241517D01*
X156570878Y-78241804D01*
X156569509Y-78237369D01*
X156569508Y-78237363D01*
X156476393Y-78000112D01*
X156348959Y-77779388D01*
X156190050Y-77580123D01*
X156003217Y-77406768D01*
X155792634Y-77263195D01*
X155792630Y-77263193D01*
X155792627Y-77263191D01*
X155792626Y-77263190D01*
X155563006Y-77152612D01*
X155563008Y-77152612D01*
X155319466Y-77077489D01*
X155319462Y-77077488D01*
X155319458Y-77077487D01*
X155198231Y-77059214D01*
X155067440Y-77039500D01*
X155067435Y-77039500D01*
X154812565Y-77039500D01*
X154812559Y-77039500D01*
X154655609Y-77063157D01*
X154560542Y-77077487D01*
X154560539Y-77077488D01*
X154560533Y-77077489D01*
X154316992Y-77152612D01*
X154087373Y-77263190D01*
X154087372Y-77263191D01*
X153876782Y-77406768D01*
X153689952Y-77580121D01*
X153689950Y-77580123D01*
X153531041Y-77779388D01*
X153403608Y-78000109D01*
X153310492Y-78237362D01*
X153309122Y-78241804D01*
X153307677Y-78241358D01*
X153276780Y-78296593D01*
X153215117Y-78329449D01*
X153145480Y-78323752D01*
X153089978Y-78281311D01*
X153071805Y-78241517D01*
X153070878Y-78241804D01*
X153069509Y-78237369D01*
X153069508Y-78237363D01*
X152976393Y-78000112D01*
X152848959Y-77779388D01*
X152690050Y-77580123D01*
X152503217Y-77406768D01*
X152292634Y-77263195D01*
X152292630Y-77263193D01*
X152292627Y-77263191D01*
X152292626Y-77263190D01*
X152063006Y-77152612D01*
X152063008Y-77152612D01*
X151819466Y-77077489D01*
X151819462Y-77077488D01*
X151819458Y-77077487D01*
X151698231Y-77059214D01*
X151567440Y-77039500D01*
X151567435Y-77039500D01*
X151312565Y-77039500D01*
X151312559Y-77039500D01*
X151155609Y-77063157D01*
X151060542Y-77077487D01*
X151060539Y-77077488D01*
X151060533Y-77077489D01*
X150816992Y-77152612D01*
X150587373Y-77263190D01*
X150587372Y-77263191D01*
X150376782Y-77406768D01*
X150189952Y-77580121D01*
X150189950Y-77580123D01*
X150031041Y-77779388D01*
X149903608Y-78000109D01*
X149879927Y-78060447D01*
X149837110Y-78115661D01*
X149771240Y-78138961D01*
X149703230Y-78122950D01*
X149654672Y-78072711D01*
X149640499Y-78015144D01*
X149640499Y-77492129D01*
X149640498Y-77492123D01*
X149640497Y-77492116D01*
X149634091Y-77432517D01*
X149624487Y-77406768D01*
X149583797Y-77297671D01*
X149583793Y-77297664D01*
X149497547Y-77182455D01*
X149497544Y-77182452D01*
X149382335Y-77096206D01*
X149382328Y-77096202D01*
X149247482Y-77045908D01*
X149247483Y-77045908D01*
X149187883Y-77039501D01*
X149187881Y-77039500D01*
X149187873Y-77039500D01*
X149187864Y-77039500D01*
X146692129Y-77039500D01*
X146692123Y-77039501D01*
X146632516Y-77045908D01*
X146497671Y-77096202D01*
X146497664Y-77096206D01*
X146382455Y-77182452D01*
X146382452Y-77182455D01*
X146296206Y-77297664D01*
X146296202Y-77297671D01*
X146245908Y-77432517D01*
X146239501Y-77492116D01*
X146239501Y-77492123D01*
X146239500Y-77492135D01*
X146239500Y-79987870D01*
X146239501Y-79987876D01*
X146245346Y-80042247D01*
X146232939Y-80111006D01*
X146185328Y-80162143D01*
X146122056Y-80179500D01*
X144866610Y-80179500D01*
X144693389Y-80179500D01*
X144607844Y-80193049D01*
X144522298Y-80206598D01*
X144357549Y-80260128D01*
X144203211Y-80338768D01*
X144123256Y-80396859D01*
X144063072Y-80440586D01*
X144063070Y-80440588D01*
X144063069Y-80440588D01*
X141400588Y-83103069D01*
X141400588Y-83103070D01*
X141400586Y-83103072D01*
X141356859Y-83163256D01*
X141298768Y-83243211D01*
X141220128Y-83397552D01*
X141166597Y-83562302D01*
X141139500Y-83733389D01*
X132580500Y-83733389D01*
X132580500Y-71744500D01*
X132600185Y-71677461D01*
X132652989Y-71631706D01*
X132704500Y-71620500D01*
X182255500Y-71620500D01*
X182322539Y-71640185D01*
G37*
%TD.AperFunction*%
%TA.AperFunction,NonConductor*%
G36*
X170425703Y-99024013D02*
G01*
X170432181Y-99030045D01*
X171572046Y-100169910D01*
X171605531Y-100231233D01*
X171600547Y-100300925D01*
X171568707Y-100348489D01*
X171469954Y-100440118D01*
X171311041Y-100639388D01*
X171183608Y-100860109D01*
X171159927Y-100920447D01*
X171117110Y-100975661D01*
X171051240Y-100998961D01*
X170983230Y-100982950D01*
X170934672Y-100932711D01*
X170920499Y-100875144D01*
X170920499Y-100352129D01*
X170920498Y-100352123D01*
X170920497Y-100352116D01*
X170914091Y-100292517D01*
X170908725Y-100278131D01*
X170863797Y-100157671D01*
X170863793Y-100157664D01*
X170777547Y-100042455D01*
X170777544Y-100042452D01*
X170662335Y-99956206D01*
X170662328Y-99956202D01*
X170527482Y-99905908D01*
X170527483Y-99905908D01*
X170467883Y-99899501D01*
X170467881Y-99899500D01*
X170467873Y-99899500D01*
X170467865Y-99899500D01*
X170344500Y-99899500D01*
X170277461Y-99879815D01*
X170231706Y-99827011D01*
X170220500Y-99775500D01*
X170220500Y-99117726D01*
X170240185Y-99050687D01*
X170292989Y-99004932D01*
X170362147Y-98994988D01*
X170425703Y-99024013D01*
G37*
%TD.AperFunction*%
%TA.AperFunction,NonConductor*%
G36*
X171125702Y-102231144D02*
G01*
X171159927Y-102279553D01*
X171183607Y-102339888D01*
X171311041Y-102560612D01*
X171469950Y-102759877D01*
X171495349Y-102783444D01*
X171531104Y-102843471D01*
X171528729Y-102913300D01*
X171498690Y-102962022D01*
X171457533Y-103003180D01*
X171396211Y-103036666D01*
X171369851Y-103039500D01*
X171037943Y-103039500D01*
X170970904Y-103019815D01*
X170925149Y-102967011D01*
X170914654Y-102902244D01*
X170920499Y-102847880D01*
X170920500Y-102847873D01*
X170920499Y-102324854D01*
X170940183Y-102257818D01*
X170992987Y-102212063D01*
X171062146Y-102202119D01*
X171125702Y-102231144D01*
G37*
%TD.AperFunction*%
%TA.AperFunction,NonConductor*%
G36*
X167241257Y-97540185D02*
G01*
X167261899Y-97556819D01*
X168183181Y-98478101D01*
X168216666Y-98539424D01*
X168219500Y-98565782D01*
X168219500Y-99775500D01*
X168199815Y-99842539D01*
X168147011Y-99888294D01*
X168095501Y-99899500D01*
X167972130Y-99899500D01*
X167972123Y-99899501D01*
X167912516Y-99905908D01*
X167777671Y-99956202D01*
X167777664Y-99956206D01*
X167662455Y-100042452D01*
X167662452Y-100042455D01*
X167576206Y-100157664D01*
X167576202Y-100157671D01*
X167525908Y-100292517D01*
X167519891Y-100348489D01*
X167519501Y-100352123D01*
X167519500Y-100352135D01*
X167519500Y-102847870D01*
X167519501Y-102847876D01*
X167525346Y-102902247D01*
X167512939Y-102971006D01*
X167465328Y-103022143D01*
X167402056Y-103039500D01*
X160527204Y-103039500D01*
X160460165Y-103019815D01*
X160439523Y-103003181D01*
X158843728Y-101407386D01*
X158811635Y-101351800D01*
X158753903Y-101136337D01*
X158654035Y-100922171D01*
X158621107Y-100875144D01*
X158518494Y-100728597D01*
X158351402Y-100561506D01*
X158351396Y-100561501D01*
X158165842Y-100431575D01*
X158122217Y-100376998D01*
X158115023Y-100307500D01*
X158146546Y-100245145D01*
X158165842Y-100228425D01*
X158266899Y-100157664D01*
X158351401Y-100098495D01*
X158518495Y-99931401D01*
X158654035Y-99737830D01*
X158753903Y-99523663D01*
X158815063Y-99295408D01*
X158835659Y-99060000D01*
X158815063Y-98824592D01*
X158753903Y-98596337D01*
X158654035Y-98382171D01*
X158518495Y-98188599D01*
X158396567Y-98066671D01*
X158363084Y-98005351D01*
X158368068Y-97935659D01*
X158409939Y-97879725D01*
X158440915Y-97862810D01*
X158572331Y-97813796D01*
X158687546Y-97727546D01*
X158773796Y-97612331D01*
X158777960Y-97601165D01*
X158819829Y-97545234D01*
X158885293Y-97520816D01*
X158894141Y-97520500D01*
X167174218Y-97520500D01*
X167241257Y-97540185D01*
G37*
%TD.AperFunction*%
M02*
